<svg width="102" height="15" viewBox="0 0 102 15" fill="none" xmlns="http://www.w3.org/2000/svg">
<path d="M0.999999 14.4C0.447715 14.4 0 13.9523 0 13.4V1.6C0 1.04772 0.447715 0.599999 1 0.599999H2.19203C2.74431 0.599999 3.19203 1.04771 3.19203 1.6V13.4C3.19203 13.9523 2.74431 14.4 2.19203 14.4H0.999999ZM2.47631 10.6C1.92403 10.6 1.47631 10.1523 1.47631 9.6V8.8C1.47631 8.24771 1.92403 7.8 2.47631 7.8H4.72819C5.4996 7.8 6.11806 7.62 6.58356 7.26C7.06237 6.88667 7.30177 6.33333 7.30177 5.6C7.30177 4.85333 7.06237 4.3 6.58356 3.94C6.11806 3.58 5.4996 3.4 4.72819 3.4H2.47632C1.92403 3.4 1.47631 2.95229 1.47631 2.4V1.6C1.47631 1.04771 1.92403 0.599999 2.47631 0.599999H5.02745C6.06486 0.599999 7.00251 0.8 7.84042 1.2C8.67833 1.6 9.33669 2.17333 9.81549 2.92C10.3076 3.65333 10.5536 4.54667 10.5536 5.6C10.5536 6.64 10.3076 7.53333 9.81549 8.28C9.33669 9.02667 8.67833 9.6 7.84042 10C7.00251 10.4 6.06486 10.6 5.02745 10.6H2.47631Z" fill="#000D30"/>
<path d="M14.2528 14.4C13.7006 14.4 13.2528 13.9523 13.2528 13.4V1.6C13.2528 1.04772 13.7006 0.599999 14.2528 0.599999H15.4449C15.9972 0.599999 16.4449 1.04771 16.4449 1.6V13.4C16.4449 13.9523 15.9972 14.4 15.4449 14.4H14.2528ZM15.7292 9.6C15.1769 9.6 14.7292 9.15228 14.7292 8.6V8C14.7292 7.44772 15.1769 7 15.7292 7H18.1805C18.8322 7 19.3576 6.85333 19.7566 6.56C20.1556 6.26667 20.3551 5.81333 20.3551 5.2C20.3551 4.58667 20.1556 4.13333 19.7566 3.84C19.3576 3.54667 18.8322 3.4 18.1805 3.4H15.7292C15.1769 3.4 14.7292 2.95229 14.7292 2.4V1.6C14.7292 1.04771 15.1769 0.599999 15.7292 0.599999H18.4798C19.4507 0.599999 20.3219 0.786666 21.0933 1.16C21.8647 1.52 22.4765 2.04667 22.9287 2.74C23.3809 3.42 23.607 4.24 23.607 5.2C23.607 6.12 23.3809 6.90667 22.9287 7.56C22.4765 8.21333 21.8647 8.72 21.0933 9.08C20.3219 9.42667 19.4507 9.6 18.4798 9.6H15.7292ZM18.2211 10.0609C17.8754 9.39524 18.3584 8.6 19.1086 8.6H20.059C20.4152 8.6 20.7446 8.78948 20.9236 9.09744L23.1325 12.8974C23.5201 13.5641 23.0391 14.4 22.268 14.4H21.0823C20.709 14.4 20.3669 14.1921 20.1948 13.8609L18.2211 10.0609Z" fill="#000D30"/>
<path d="M25.8051 7.5C25.8051 6.38 25.9713 5.38 26.3039 4.5C26.6497 3.62 27.1218 2.87333 27.7203 2.26C28.3188 1.64667 29.0104 1.18 29.7951 0.86C30.5931 0.526667 31.4377 0.36 32.3288 0.36C33.2332 0.36 34.0778 0.526667 34.8625 0.86C35.6472 1.18 36.3388 1.64667 36.9373 2.26C37.5358 2.87333 38.0013 3.62 38.3338 4.5C38.6796 5.38 38.8525 6.38 38.8525 7.5C38.8525 8.62 38.6796 9.62 38.3338 10.5C38.0013 11.38 37.5358 12.1267 36.9373 12.74C36.3388 13.3533 35.6472 13.8267 34.8625 14.16C34.0778 14.48 33.2399 14.64 32.3488 14.64C31.4443 14.64 30.5931 14.48 29.7951 14.16C29.0104 13.8267 28.3188 13.3533 27.7203 12.74C27.1218 12.1267 26.6497 11.38 26.3039 10.5C25.9713 9.62 25.8051 8.62 25.8051 7.5ZM29.057 7.5C29.057 8.22 29.1368 8.84667 29.2964 9.38C29.4693 9.91333 29.702 10.36 29.9946 10.72C30.2872 11.08 30.633 11.3467 31.032 11.52C31.431 11.6933 31.8633 11.78 32.3288 11.78C32.7943 11.78 33.2266 11.6933 33.6256 11.52C34.0246 11.3467 34.3704 11.08 34.663 10.72C34.9556 10.36 35.1817 9.91333 35.3413 9.38C35.5142 8.84667 35.6006 8.22 35.6006 7.5C35.6006 6.78 35.5142 6.15333 35.3413 5.62C35.1817 5.08667 34.9556 4.64 34.663 4.28C34.3704 3.92 34.0246 3.65333 33.6256 3.48C33.2266 3.30667 32.7943 3.22 32.3288 3.22C31.8633 3.22 31.431 3.30667 31.032 3.48C30.633 3.65333 30.2872 3.92 29.9946 4.28C29.702 4.64 29.4693 5.08667 29.2964 5.62C29.1368 6.15333 29.057 6.78 29.057 7.5Z" fill="#000D30"/>
<path d="M41.3337 15C40.6529 15 40.1712 14.3346 40.3836 13.6879L44.6543 0.687897C44.7891 0.277448 45.1723 0 45.6043 0H46.4319C47.1126 0 47.5944 0.665376 47.3819 1.3121L43.1112 14.3121C42.9764 14.7226 42.5932 15 42.1612 15H41.3337Z" fill="#000D30"/>
<path d="M48.9013 7.5C48.9013 6.38 49.0809 5.38 49.44 4.5C49.8124 3.62 50.3111 2.87333 50.9363 2.26C51.5747 1.64667 52.2995 1.18 53.1108 0.86C53.9354 0.526667 54.8066 0.36 55.7243 0.36C56.5888 0.36 57.3802 0.48 58.0984 0.72C58.5301 0.853787 58.9549 1.02938 59.3728 1.24678C59.8635 1.50208 59.981 2.13169 59.6706 2.58954L59.059 3.49167C58.7489 3.94904 58.1287 4.0597 57.6261 3.83005C57.4746 3.76083 57.3195 3.69748 57.1607 3.64C56.6819 3.45333 56.1698 3.36 55.6245 3.36C54.9861 3.36 54.4009 3.51333 53.8689 3.82C53.3502 4.12667 52.9313 4.58667 52.6121 5.2C52.3062 5.81333 52.1532 6.58 52.1532 7.5C52.1532 8.42 52.3062 9.18667 52.6121 9.8C52.9313 10.4133 53.3569 10.8733 53.8889 11.18C54.4209 11.4867 55.0061 11.64 55.6445 11.64C56.1898 11.64 56.6952 11.54 57.1607 11.34C57.3207 11.2732 57.477 11.1989 57.6296 11.1171C58.1312 10.8485 58.7797 10.9215 59.1183 11.3789L59.755 12.2393C60.0768 12.6741 59.9979 13.2924 59.5389 13.5788C59.1087 13.8472 58.6684 14.0676 58.2181 14.24C57.4866 14.5067 56.6686 14.64 55.7642 14.64C54.8465 14.64 53.9687 14.48 53.1308 14.16C52.3062 13.8267 51.5747 13.3533 50.9363 12.74C50.3111 12.1267 49.8124 11.38 49.44 10.5C49.0809 9.62 48.9013 8.62 48.9013 7.5Z" fill="#000D30"/>
<path d="M61.745 7.5C61.745 6.38 61.9113 5.38 62.2438 4.5C62.5896 3.62 63.0618 2.87333 63.6603 2.26C64.2588 1.64667 64.9504 1.18 65.7351 0.86C66.5331 0.526667 67.3776 0.36 68.2687 0.36C69.1732 0.36 70.0177 0.526667 70.8024 0.86C71.5871 1.18 72.2787 1.64667 72.8772 2.26C73.4758 2.87333 73.9413 3.62 74.2738 4.5C74.6196 5.38 74.7925 6.38 74.7925 7.5C74.7925 8.62 74.6196 9.62 74.2738 10.5C73.9413 11.38 73.4758 12.1267 72.8772 12.74C72.2787 13.3533 71.5871 13.8267 70.8024 14.16C70.0177 14.48 69.1798 14.64 68.2887 14.64C67.3843 14.64 66.5331 14.48 65.7351 14.16C64.9504 13.8267 64.2588 13.3533 63.6603 12.74C63.0618 12.1267 62.5896 11.38 62.2438 10.5C61.9113 9.62 61.745 8.62 61.745 7.5ZM64.9969 7.5C64.9969 8.22 65.0767 8.84667 65.2363 9.38C65.4092 9.91333 65.642 10.36 65.9346 10.72C66.2272 11.08 66.573 11.3467 66.972 11.52C67.371 11.6933 67.8032 11.78 68.2687 11.78C68.7343 11.78 69.1665 11.6933 69.5655 11.52C69.9645 11.3467 70.3103 11.08 70.6029 10.72C70.8955 10.36 71.1216 9.91333 71.2812 9.38C71.4541 8.84667 71.5406 8.22 71.5406 7.5C71.5406 6.78 71.4541 6.15333 71.2812 5.62C71.1216 5.08667 70.8955 4.64 70.6029 4.28C70.3103 3.92 69.9645 3.65333 69.5655 3.48C69.1665 3.30667 68.7343 3.22 68.2687 3.22C67.8032 3.22 67.371 3.30667 66.972 3.48C66.573 3.65333 66.2272 3.92 65.9346 4.28C65.642 4.64 65.4092 5.08667 65.2363 5.62C65.0767 6.15333 64.9969 6.78 64.9969 7.5Z" fill="#000D30"/>
<path d="M78.5883 14.4C78.036 14.4 77.5883 13.9523 77.5883 13.4V1.6C77.5883 1.04772 78.036 0.599999 78.5883 0.599999H79.7803C80.3326 0.599999 80.7803 1.04771 80.7803 1.6V13.4C80.7803 13.9523 80.3326 14.4 79.7803 14.4H78.5883ZM80.0646 14.4C79.5123 14.4 79.0646 13.9523 79.0646 13.4V12.6C79.0646 12.0477 79.5123 11.6 80.0646 11.6H82.516C83.2475 11.6 83.8859 11.4533 84.4312 11.16C84.9898 10.8533 85.4221 10.3933 85.728 9.78C86.0339 9.16667 86.1868 8.40667 86.1868 7.5C86.1868 6.58 86.0339 5.82 85.728 5.22C85.4221 4.60667 84.9898 4.15333 84.4312 3.86C83.8859 3.55333 83.2475 3.4 82.516 3.4H80.0646C79.5123 3.4 79.0646 2.95229 79.0646 2.4V1.6C79.0646 1.04771 79.5123 0.599999 80.0646 0.599999H82.8152C84.0655 0.599999 85.1893 0.873333 86.1868 1.42C87.1843 1.96667 87.9757 2.75333 88.5609 3.78C89.1461 4.80667 89.4387 6.04667 89.4387 7.5C89.4387 8.94 89.1461 10.18 88.5609 11.22C87.9757 12.2467 87.1843 13.0333 86.1868 13.58C85.1893 14.1267 84.0655 14.4 82.8152 14.4H80.0646Z" fill="#000D30"/>
<path d="M93.2244 14.4C92.6721 14.4 92.2244 13.9523 92.2244 13.4V1.6C92.2244 1.04772 92.6721 0.599999 93.2244 0.599999H94.4164C94.9687 0.599999 95.4164 1.04771 95.4164 1.6V13.4C95.4164 13.9523 94.9687 14.4 94.4164 14.4H93.2244ZM94.7007 14.4C94.1484 14.4 93.7007 13.9523 93.7007 13.4V12.6C93.7007 12.0477 94.1484 11.6 94.7007 11.6H101C101.552 11.6 102 12.0477 102 12.6V13.4C102 13.9523 101.552 14.4 101 14.4H94.7007ZM94.7007 8.76C94.1484 8.76 93.7007 8.31228 93.7007 7.76V7.12C93.7007 6.56772 94.1484 6.12 94.7007 6.12H99.9626C100.515 6.12 100.963 6.56772 100.963 7.12V7.76C100.963 8.31228 100.515 8.76 99.9626 8.76H94.7007ZM94.7007 3.4C94.1484 3.4 93.7007 2.95229 93.7007 2.4V1.6C93.7007 1.04771 94.1484 0.599999 94.7007 0.599999H100.9C101.453 0.599999 101.9 1.04771 101.9 1.6V2.4C101.9 2.95229 101.453 3.4 100.9 3.4H94.7007Z" fill="#000D30"/>
</svg>
